# xmcd
#
# Track frame offsets:
#	150
#	26021
#	41798
#	56799
#	94193
#	125949
#	147695
#
# Disc length: 2451 seconds
#
# Revision: 1
# Processed by: cddbd v1.5.2PL0 Copyright (c) Steve Scherf et al.
# Submitted via: audiograbber 1.83.01
#
DISCID=70099107
DTITLE=B.B. King - LA Midnight
DYEAR=1972
DGENRE=Blues
TTITLE0=I Got Some Help I Don't Need
TTITLE1=Help The Poor
TTITLE2=Can't You Hear Me Talking
TTITLE3=Midnight
TTITLE4=Sweet Sixteen
TTITLE5=I've Been Blue Too Long
TTITLE6=Lucille's Granny
EXTD=
EXTT0=
EXTT1=
EXTT2=
EXTT3=
EXTT4=
EXTT5=
EXTT6=
PLAYORDER=
